<mxfile host="Electron" agent="Mozilla/5.0 (Windows NT 10.0; Win64; x64) AppleWebKit/537.36 (KHTML, like Gecko) draw.io/28.2.5 Chrome/138.0.7204.251 Electron/37.6.1 Safari/537.36" version="28.2.5">
  <diagram name="Page-1" id="8jpfqcKimjPbdLyrXSgV">
    <mxGraphModel dx="772" dy="501" grid="1" gridSize="10" guides="1" tooltips="1" connect="1" arrows="1" fold="1" page="1" pageScale="1" pageWidth="850" pageHeight="1100" math="0" shadow="0">
      <root>
        <mxCell id="0" />
        <mxCell id="1" parent="0" />
        <mxCell id="8303q4QL0jaYdAMjNJJD-6" style="edgeStyle=orthogonalEdgeStyle;rounded=0;orthogonalLoop=1;jettySize=auto;html=1;exitX=0.5;exitY=1;exitDx=0;exitDy=0;entryX=0.5;entryY=0;entryDx=0;entryDy=0;" edge="1" parent="1" source="8303q4QL0jaYdAMjNJJD-1" target="8303q4QL0jaYdAMjNJJD-2">
          <mxGeometry relative="1" as="geometry" />
        </mxCell>
        <mxCell id="8303q4QL0jaYdAMjNJJD-1" value="Bắt đầu chương trình" style="ellipse;whiteSpace=wrap;html=1;" vertex="1" parent="1">
          <mxGeometry x="320" y="40" width="120" height="80" as="geometry" />
        </mxCell>
        <mxCell id="8303q4QL0jaYdAMjNJJD-7" style="edgeStyle=orthogonalEdgeStyle;rounded=0;orthogonalLoop=1;jettySize=auto;html=1;exitX=0.5;exitY=1;exitDx=0;exitDy=0;entryX=0.5;entryY=0;entryDx=0;entryDy=0;" edge="1" parent="1" source="8303q4QL0jaYdAMjNJJD-2" target="8303q4QL0jaYdAMjNJJD-3">
          <mxGeometry relative="1" as="geometry" />
        </mxCell>
        <mxCell id="8303q4QL0jaYdAMjNJJD-2" value="Nhập vào 2 số nguyên a,b&amp;nbsp;" style="shape=parallelogram;perimeter=parallelogramPerimeter;whiteSpace=wrap;html=1;fixedSize=1;" vertex="1" parent="1">
          <mxGeometry x="320" y="160" width="120" height="80" as="geometry" />
        </mxCell>
        <mxCell id="8303q4QL0jaYdAMjNJJD-8" style="edgeStyle=orthogonalEdgeStyle;rounded=0;orthogonalLoop=1;jettySize=auto;html=1;exitX=0.5;exitY=1;exitDx=0;exitDy=0;entryX=0.5;entryY=0;entryDx=0;entryDy=0;" edge="1" parent="1" source="8303q4QL0jaYdAMjNJJD-3" target="8303q4QL0jaYdAMjNJJD-4">
          <mxGeometry relative="1" as="geometry" />
        </mxCell>
        <mxCell id="8303q4QL0jaYdAMjNJJD-3" value="Sum= a + b" style="rounded=0;whiteSpace=wrap;html=1;" vertex="1" parent="1">
          <mxGeometry x="320" y="280" width="120" height="80" as="geometry" />
        </mxCell>
        <mxCell id="8303q4QL0jaYdAMjNJJD-9" style="edgeStyle=orthogonalEdgeStyle;rounded=0;orthogonalLoop=1;jettySize=auto;html=1;exitX=0.5;exitY=1;exitDx=0;exitDy=0;" edge="1" parent="1" source="8303q4QL0jaYdAMjNJJD-4" target="8303q4QL0jaYdAMjNJJD-5">
          <mxGeometry relative="1" as="geometry" />
        </mxCell>
        <mxCell id="8303q4QL0jaYdAMjNJJD-4" value="Xuất tổng ra màn hành" style="shape=parallelogram;perimeter=parallelogramPerimeter;whiteSpace=wrap;html=1;fixedSize=1;" vertex="1" parent="1">
          <mxGeometry x="320" y="400" width="120" height="80" as="geometry" />
        </mxCell>
        <mxCell id="8303q4QL0jaYdAMjNJJD-5" value="Kết thúc chương trình" style="ellipse;whiteSpace=wrap;html=1;" vertex="1" parent="1">
          <mxGeometry x="320" y="520" width="120" height="80" as="geometry" />
        </mxCell>
      </root>
    </mxGraphModel>
  </diagram>
</mxfile>
